# xmcd CD database file
#
# Track frame offsets:
#	150
#	21282
#	25678
#	31013
#	43675
#	55862
#	72397
#	83681
#	91052
#	95242
#	115595
#	119965
#	131190
#	146798
#
# Disc length: 2865 seconds
#
# Revision: 0
# Processed by: cddbd v1.5.1PL0 Copyright (c) Steve Scherf et al.
# Submitted via: CDex 1.51
#
DISCID=c20b2f0e
DTITLE=Verschiedene - Texas The Big Picture
DYEAR=2003
DGENRE=Country
TTITLE0=That´s right (You´re not from Texas)
TTITLE1=Mutton Bustin
TTITLE2=Vaquero
TTITLE3=En mi Vencidad
TTITLE4=Rolling Stone from Texas
TTITLE5=Sugar Foot Rag
TTITLE6=Two Tons Of Steel
TTITLE7=Romance Wth The Land
TTITLE8=The Alamo
TTITLE9=Bandera Highway
TTITLE10=Rio Crande Crossing
TTITLE11=Texas: The Big Picture - Finale
TTITLE12=Boogie Back To Texas
TTITLE13=The Star Of Destiny
EXTD=YEAR: 2003
EXTT0=
EXTT1=
EXTT2=
EXTT3=
EXTT4=
EXTT5=
EXTT6=
EXTT7=
EXTT8=
EXTT9=
EXTT10=
EXTT11=
EXTT12=
EXTT13=
PLAYORDER=
